<svg width="293" height="173" viewBox="0 0 293 173" fill="none" xmlns="http://www.w3.org/2000/svg">
<rect y="0.929665" width="293" height="171.141" rx="14" fill="url(#paint0_linear_1_26)"/>
<mask id="mask0_1_26" style="mask-type:alpha" maskUnits="userSpaceOnUse" x="0" y="0" width="258" height="173">
<path d="M245.979 0.929665H11.18C5.00545 0.929665 0 6.17777 0 12.6516V160.348C0 166.822 5.00545 172.07 11.18 172.07H245.979C252.154 172.07 257.159 166.822 257.159 160.348V12.6516C257.159 6.17777 252.154 0.929665 245.979 0.929665Z" fill="#B4CEFF"/>
</mask>
<g mask="url(#mask0_1_26)">
<path d="M90.1828 111.375C70.5389 96.2675 53.5976 77.0978 42.7205 55.0765C33.4622 36.3319 22.0177 2.96877 39.7977 -14.2501C46.5426 -20.7814 55.9468 -23.8231 64.782 -27.2753C91.6299 -37.7662 113.697 -58.4676 144.215 -54.0023C169.136 -50.354 191.933 -36.3805 211.667 -21.8541C229.824 -8.48763 244.392 8.36303 250.761 26.7901C255.907 41.6803 256.123 58.1821 248.714 69.665C246.377 73.2306 243.416 76.3723 239.964 78.9483C236.299 81.731 232.019 84.2649 227.38 86.6399C211.466 94.7862 197.547 103.084 185.762 116.43C175.634 127.898 164.096 135.071 147.981 135.326C134.086 135.546 120.503 130.718 108.587 123.77C102.185 120.026 96.0372 115.885 90.1828 111.375V111.375Z" fill="url(#paint1_linear_1_26)"/>
<path d="M-33.0505 26.959C-32.6691 36.9856 -30.9627 46.9395 -27.9653 56.6207C-24.8927 66.3257 -20.2447 75.6357 -13.8579 84.0075C-6.41152 93.7676 3.27603 102.1 13.2 110.046C22.8464 117.77 32.3879 126.658 43.8696 132.08C58.043 138.772 70.1705 136.504 83.552 131.384C87.8566 129.737 92.4924 127.93 97.3341 126.117C108.463 122.354 120.04 119.644 131.725 117.267C142.694 115.036 154.984 114.054 165.477 110.179C169.109 108.84 172.546 107.125 175.714 105.071C179.11 102.844 182.296 100.381 185.241 97.7049C190.31 93.152 194.686 88.0416 198.258 82.5017C201.72 77.0862 204.514 71.3625 206.593 65.4274C208.902 59.5151 210.841 53.408 212.641 47.2228C214.442 41.0376 216.059 34.7683 217.562 28.5113C219.929 18.6683 220.96 8.88367 220.148 -0.331416C219.335 -9.54651 216.498 -18.2019 211.155 -25.7889C206.505 -32.2852 200.253 -37.7827 192.859 -41.8759C184.521 -46.4924 175.123 -49.4359 165.338 -50.4964C158.717 -51.1857 152.03 -51.2192 145.401 -50.5961C137.723 -49.8628 130.097 -48.7593 122.557 -47.2905C115.546 -45.9732 108.576 -44.6832 101.628 -43.5154C94.6795 -42.3475 87.7826 -41.2983 80.913 -40.4618C74.0434 -39.6253 67.2611 -39.0029 60.5433 -38.6881C53.9508 -38.3589 47.3417 -38.3805 40.7523 -38.753C29.2657 -39.4384 18.7691 -39.0591 9.31668 -36.7598C-0.497019 -34.4304 -9.36134 -29.7157 -16.2552 -23.1588C-26.5835 -13.4623 -30.9088 -1.39979 -32.4965 11.5232C-33.1069 16.6499 -33.292 21.8087 -33.0505 26.959Z" fill="url(#paint2_linear_1_26)"/>
</g>
<path d="M247.375 34.4695L249.847 20.5677H253.708L251.314 34.4695H247.375Z" fill="white"/>
<path d="M247.375 34.4695L250.542 20.5677H253.708L251.314 34.4695H247.375Z" fill="white"/>
<path d="M265.293 20.722C264.521 20.4131 263.285 20.1042 261.74 20.1042C257.879 20.1042 255.098 22.035 255.098 24.8153C255.098 26.9006 257.029 27.9819 258.574 28.677C260.118 29.3721 260.582 29.8354 260.582 30.4533C260.582 31.3801 259.346 31.8435 258.265 31.8435C256.72 31.8435 255.871 31.6118 254.558 31.0712L254.017 30.8395L253.477 34.006C254.403 34.3921 256.102 34.7783 257.879 34.7783C261.972 34.7783 264.675 32.8475 264.675 29.9127C264.675 28.2908 263.671 27.0551 261.354 26.0511C259.964 25.356 259.114 24.9698 259.114 24.2747C259.114 23.6569 259.81 23.039 261.354 23.039C262.667 23.039 263.594 23.2707 264.289 23.5796L264.675 23.7341L265.293 20.722Z" fill="white"/>
<path d="M265.293 20.722C264.521 20.4131 263.285 20.1042 261.74 20.1042C257.879 20.1042 255.793 22.035 255.793 24.8153C255.793 26.9006 257.029 27.9819 258.574 28.677C260.118 29.3721 260.582 29.8354 260.582 30.4533C260.582 31.3801 259.346 31.8435 258.265 31.8435C256.72 31.8435 255.871 31.6118 254.558 31.0712L254.017 30.8395L253.477 34.006C254.403 34.3921 256.102 34.7783 257.879 34.7783C261.972 34.7783 264.675 32.8475 264.675 29.9127C264.675 28.2908 263.671 27.0551 261.354 26.0511C259.964 25.356 259.114 24.9698 259.114 24.2747C259.114 23.6569 259.81 23.039 261.354 23.039C262.667 23.039 263.594 23.2707 264.289 23.5796L264.675 23.7341L265.293 20.722Z" fill="white"/>
<path d="M271.934 20.5677C271.007 20.5677 270.312 20.645 269.926 21.5717L264.134 34.4695H268.304L269.076 32.1526H274.019L274.483 34.4695H278.19L274.946 20.5677H271.934V20.5677ZM270.158 29.8356C270.389 29.1405 271.702 25.7423 271.702 25.7423C271.702 25.7423 272.011 24.8927 272.243 24.3521L272.475 25.6651C272.475 25.6651 273.247 29.1405 273.401 29.9128H270.158V29.8356Z" fill="white"/>
<path d="M272.861 20.5677C271.934 20.5677 271.239 20.645 270.853 21.5717L264.134 34.4695H268.304L269.076 32.1526H274.019L274.483 34.4695H278.19L274.946 20.5677H272.861V20.5677ZM270.158 29.8356C270.467 29.0633 271.702 25.7423 271.702 25.7423C271.702 25.7423 272.011 24.8927 272.243 24.3521L272.475 25.6651C272.475 25.6651 273.247 29.1405 273.401 29.9128H270.158V29.8356Z" fill="white"/>
<path d="M240.27 30.2987L239.884 28.2907C239.189 25.9737 236.949 23.425 234.478 22.1893L237.953 34.5465H242.124L248.379 20.6447H244.209L240.27 30.2987Z" fill="white"/>
<path d="M240.27 30.2987L239.884 28.2907C239.189 25.9737 236.949 23.425 234.478 22.1893L237.953 34.5465H242.124L248.379 20.6447H244.981L240.27 30.2987Z" fill="white"/>
<path d="M229.534 20.5677L230.229 20.7222C235.172 21.8807 238.57 24.8155 239.883 28.291L238.493 21.7262C238.262 20.7994 237.566 20.5677 236.717 20.5677H229.534V20.5677Z" fill="white"/>
<path d="M229.534 20.5677C234.477 21.7262 238.57 24.7383 239.883 28.2137L238.57 22.7302C238.339 21.8034 237.566 21.2628 236.717 21.2628L229.534 20.5677Z" fill="white"/>
<path d="M229.534 20.5677C234.477 21.7262 238.57 24.7383 239.883 28.2137L238.957 25.2017C238.725 24.2749 238.416 23.3481 237.335 22.9619L229.534 20.5677Z" fill="white"/>
<path d="M244.131 29.8358L241.505 27.2099L240.27 30.1447L239.961 28.2139C239.266 25.8969 237.026 23.3482 234.555 22.1125L238.03 34.4697H242.201L244.131 29.8358Z" fill="white"/>
<path d="M251.313 34.4703L247.992 31.0721L247.375 34.4703H251.313Z" fill="white"/>
<path d="M260.196 29.6814C260.504 29.9904 260.659 30.2221 260.582 30.531C260.582 31.4578 259.346 31.9212 258.265 31.9212C256.72 31.9212 255.871 31.6895 254.558 31.1489L254.017 30.9172L253.476 34.0837C254.403 34.4698 256.102 34.856 257.879 34.856C260.35 34.856 262.358 34.1609 263.517 32.9252L260.196 29.6814Z" fill="white"/>
<path d="M264.675 34.4693H268.305L269.077 32.1523H274.02L274.483 34.4693H278.19L276.877 28.8313L272.244 24.3518L272.475 25.5875C272.475 25.5875 273.248 29.063 273.402 29.8353H270.158C270.467 29.063 271.703 25.742 271.703 25.742C271.703 25.742 272.012 24.8925 272.244 24.3518" fill="white"/>
<defs>
<linearGradient id="paint0_linear_1_26" x1="0" y1="86.5" x2="293" y2="86.5" gradientUnits="userSpaceOnUse">
<stop stop-color="#2149B0"/>
<stop offset="1" stop-color="#6D72ED"/>
</linearGradient>
<linearGradient id="paint1_linear_1_26" x1="30.4645" y1="40.3548" x2="254.471" y2="40.3548" gradientUnits="userSpaceOnUse">
<stop stop-color="#ACB6E5"/>
<stop offset="0.979167" stop-color="#86FDE8" stop-opacity="0.46"/>
</linearGradient>
<linearGradient id="paint2_linear_1_26" x1="-33.153" y1="42.5949" x2="220.422" y2="42.5949" gradientUnits="userSpaceOnUse">
<stop stop-color="#6274D7"/>
<stop offset="0.5" stop-color="#2036FF" stop-opacity="0.69"/>
<stop offset="1" stop-color="#A5AEFE" stop-opacity="0.27"/>
</linearGradient>
</defs>
</svg>
