<svg width="38" height="36" viewBox="0 0 38 36" fill="none" xmlns="http://www.w3.org/2000/svg">
<ellipse cx="18.748" cy="18" rx="18.4079" ry="18" fill="white"/>
<path fill-rule="evenodd" clip-rule="evenodd" d="M28.7608 12.1861L27.9504 11.3541L20.4342 19.0496C19.4952 20.0106 17.9157 20.0106 16.9741 19.0496L9.46048 11.3987L8.64746 12.2285L14.2425 17.9566L8.64746 23.6848L9.46048 24.5145L15.0526 18.7864L16.1641 19.924C16.8482 20.6244 17.7432 21.017 18.6821 21.017C19.6237 21.017 20.5187 20.6244 21.2032 19.924L22.3117 18.7864L27.9068 24.5145L28.7168 23.6848L23.1247 17.9566L28.7608 12.1861Z" fill="#FFB709"/>
<path fill-rule="evenodd" clip-rule="evenodd" d="M10.2709 11.1799C9.92882 11.1799 9.67433 11.4431 9.67433 11.7911V24.1218C9.67433 24.4698 9.92882 24.733 10.2709 24.733H27.1377C27.4801 24.733 27.7368 24.4698 27.7368 24.1218V11.7911C27.7368 11.4431 27.4801 11.1799 27.1377 11.1799H10.2709ZM27.1815 26H10.3147C9.3317 26 8.52124 25.1702 8.52124 24.1642V11.8358C8.52124 10.8298 9.3317 10 10.3147 10H27.1815C28.1636 10 28.9745 10.8298 28.9745 11.8358V24.1642C28.9745 25.1702 28.1636 26 27.1815 26Z" fill="#FFB709"/>
</svg>
