<svg width="130" height="130" viewBox="0 0 130 130" fill="none" xmlns="http://www.w3.org/2000/svg">
<circle cx="65" cy="65" r="65" fill="#48C33E" fill-opacity="0.1"/>
<circle cx="65" cy="65" r="45" fill="#48C33E"/>
<path d="M65.0007 48.3334C55.8173 48.3334 48.334 55.8167 48.334 65C48.334 74.1834 55.8173 81.6667 65.0007 81.6667C74.184 81.6667 81.6673 74.1834 81.6673 65C81.6673 55.8167 74.184 48.3334 65.0007 48.3334ZM72.9673 61.1667L63.5173 70.6167C63.284 70.85 62.9673 70.9834 62.634 70.9834C62.3007 70.9834 61.984 70.85 61.7507 70.6167L57.034 65.9C56.5507 65.4167 56.5507 64.6167 57.034 64.1334C57.5173 63.65 58.3173 63.65 58.8007 64.1334L62.634 67.9667L71.2007 59.4C71.684 58.9167 72.484 58.9167 72.9673 59.4C73.4507 59.8834 73.4507 60.6667 72.9673 61.1667Z" fill="white"/>
</svg>
