<svg width="14" height="18" viewBox="0 0 14 18" fill="none" xmlns="http://www.w3.org/2000/svg">
<path d="M12.8333 12.5C12.8333 11.4465 13.097 10.7873 13.3747 10.092C13.6827 9.32318 14 8.52985 14 7.25002C14 5.04385 12.1847 4.00785 11.2245 3.76752C11.067 3.72668 10.8978 3.75585 10.7602 3.84802C10.7438 3.85852 9.1315 4.91668 7 4.91668C4.88367 4.91668 3.25617 3.85735 3.23867 3.84685C3.10333 3.75702 2.93417 3.72552 2.7755 3.76752C1.81533 4.00785 0 5.04385 0 7.25002C0 8.52985 0.317333 9.32318 0.625333 10.092C0.903 10.7873 1.16667 11.4465 1.16667 12.5C1.16667 14.663 0.0723333 16.8843 0.0618333 16.9065C-0.0291667 17.0873 -0.0186666 17.3032 0.0875001 17.4735C0.193667 17.645 0.3815 17.75 0.583333 17.75H13.4167C13.6185 17.75 13.8063 17.645 13.9125 17.4723C14.0187 17.302 14.028 17.0862 13.9382 16.9053C13.9277 16.8843 12.8333 14.663 12.8333 12.5ZM1.47117 16.5833C1.834 15.657 2.33333 14.0902 2.33333 12.5C2.33333 11.2202 2.016 10.4268 1.708 9.65802C1.43033 8.96268 1.16667 8.30468 1.16667 7.25002C1.16667 5.76952 2.34617 5.16052 2.84433 4.97035C3.437 5.30752 5.0155 6.08335 7 6.08335C8.98333 6.08335 10.563 5.30752 11.1557 4.97035C11.655 5.16168 12.8333 5.77068 12.8333 7.25002C12.8333 8.30468 12.5697 8.96268 12.292 9.65802C11.984 10.4268 11.6667 11.2202 11.6667 12.5C11.6667 14.0902 12.166 15.657 12.5288 16.5833H1.47117Z" fill="white"/>
<path d="M2.91683 0.25C2.59483 0.25 2.3335 0.511333 2.3335 0.833333V4.33333C2.3335 4.65533 2.59483 4.91667 2.91683 4.91667C3.23883 4.91667 3.50016 4.65533 3.50016 4.33333V0.833333C3.50016 0.511333 3.23883 0.25 2.91683 0.25Z" fill="white"/>
<path d="M11.0833 0.25C10.7613 0.25 10.5 0.511333 10.5 0.833333V4.33333C10.5 4.65533 10.7613 4.91667 11.0833 4.91667C11.4053 4.91667 11.6667 4.65533 11.6667 4.33333V0.833333C11.6667 0.511333 11.4053 0.25 11.0833 0.25Z" fill="white"/>
</svg>
