<svg width="40" height="40" viewBox="0 0 40 40" fill="none" xmlns="http://www.w3.org/2000/svg">
<rect width="40" height="40" rx="8" fill="white"/>
<path opacity="0.4" d="M22.4993 12.5V20C22.4993 20.9166 21.7493 21.6666 20.8327 21.6666H11.666V16.35C12.2743 17.075 13.2077 17.525 14.241 17.5C15.0827 17.4833 15.841 17.1583 16.4077 16.6166C16.666 16.4 16.8827 16.125 17.0494 15.825C17.3494 15.3166 17.516 14.7166 17.4993 14.0916C17.4743 13.1166 17.041 12.2583 16.366 11.6666H21.666C22.1243 11.6666 22.4993 12.0416 22.4993 12.5Z" fill="#FF0000"/>
<path d="M28.3327 21.6666V24.1666C28.3327 25.55 27.216 26.6666 25.8327 26.6666H24.9993C24.9993 25.75 24.2493 25 23.3327 25C22.416 25 21.666 25.75 21.666 26.6666H18.3327C18.3327 25.75 17.5827 25 16.666 25C15.7493 25 14.9993 25.75 14.9993 26.6666H14.166C12.7827 26.6666 11.666 25.55 11.666 24.1666V21.6666H20.8327C21.7493 21.6666 22.4993 20.9166 22.4993 20V14.1666H24.0327C24.6327 14.1666 25.1827 14.4916 25.4827 15.0083L26.9077 17.5H25.8327C25.3743 17.5 24.9993 17.875 24.9993 18.3333V20.8333C24.9993 21.2916 25.3743 21.6666 25.8327 21.6666H28.3327Z" fill="#FF0000"/>
<path opacity="0.4" d="M16.6667 28.3333C17.5871 28.3333 18.3333 27.5871 18.3333 26.6667C18.3333 25.7462 17.5871 25 16.6667 25C15.7462 25 15 25.7462 15 26.6667C15 27.5871 15.7462 28.3333 16.6667 28.3333Z" fill="#FF0000"/>
<path opacity="0.4" d="M23.3327 28.3333C24.2532 28.3333 24.9993 27.5871 24.9993 26.6667C24.9993 25.7462 24.2532 25 23.3327 25C22.4122 25 21.666 25.7462 21.666 26.6667C21.666 27.5871 22.4122 28.3333 23.3327 28.3333Z" fill="#FF0000"/>
<path opacity="0.4" d="M28.3333 20.4417V21.6667H25.8333C25.375 21.6667 25 21.2917 25 20.8333V18.3333C25 17.875 25.375 17.5 25.8333 17.5H26.9083L28.1167 19.6166C28.2583 19.8666 28.3333 20.15 28.3333 20.4417Z" fill="#FF0000"/>
<path d="M16.3673 11.6667C15.7673 11.1334 14.9673 10.8167 14.0923 10.8334C13.3089 10.8501 12.5923 11.1417 12.0256 11.6084C11.2756 12.2334 10.809 13.1917 10.834 14.2417C10.8506 14.8667 11.034 15.4501 11.359 15.9417C11.4506 16.0834 11.5506 16.2251 11.6673 16.3501C12.2756 17.0751 13.209 17.5251 14.2423 17.5001C15.084 17.4834 15.8423 17.1584 16.409 16.6167C16.6673 16.4001 16.884 16.125 17.0506 15.825C17.3506 15.3167 17.5173 14.7167 17.5006 14.0917C17.4756 13.1167 17.0423 12.2584 16.3673 11.6667ZM15.884 13.7667L14.1423 15.45C14.0173 15.5667 13.8673 15.6251 13.709 15.6251C13.5506 15.6251 13.4006 15.5667 13.2756 15.45L12.434 14.6501C12.184 14.4084 12.1757 14.0167 12.4173 13.7667C12.659 13.5167 13.0506 13.5084 13.3006 13.7501L13.709 14.1417L15.0173 12.8751C15.2673 12.6334 15.659 12.6417 15.9006 12.8917C16.1423 13.1334 16.134 13.5251 15.884 13.7667Z" fill="#FF0000"/>
</svg>
