<svg width="30" height="30" viewBox="0 0 30 30" fill="none" xmlns="http://www.w3.org/2000/svg">
<g clip-path="url(#clip0_20_502)">
<path d="M29.6423 15.2805C29.6423 14.0514 29.5425 13.1545 29.3267 12.2244H15.2917V17.7719H23.53C23.3639 19.1505 22.467 21.2267 20.4738 22.6218L20.4459 22.8076L24.8835 26.2453L25.1909 26.276C28.0145 23.6683 29.6423 19.8315 29.6423 15.2805Z" fill="#488EF7"/>
<path d="M15.292 29.897C19.328 29.897 22.7163 28.5681 25.1912 26.2761L20.4741 22.622C19.2118 23.5023 17.5176 24.1168 15.292 24.1168C11.339 24.1168 7.9839 21.5092 6.78791 17.905L6.61261 17.9199L1.99833 21.4909L1.93799 21.6586C4.39616 26.5418 9.44543 29.897 15.292 29.897Z" fill="#34A853"/>
<path d="M6.78789 17.9051C6.47232 16.9749 6.28969 15.9783 6.28969 14.9486C6.28969 13.9187 6.47232 12.9222 6.77129 11.9921L6.76293 11.794L2.09083 8.16559L1.93797 8.2383C0.924842 10.2647 0.343506 12.5402 0.343506 14.9486C0.343506 17.3569 0.924842 19.6323 1.93797 21.6587L6.78789 17.9051Z" fill="#FFBD14"/>
<path d="M15.292 5.78004C18.0989 5.78004 19.9924 6.99252 21.072 8.00576L25.2908 3.8866C22.6998 1.47824 19.328 0 15.292 0C9.44543 0 4.39616 3.35508 1.93799 8.23821L6.77131 11.992C7.9839 8.38775 11.339 5.78004 15.292 5.78004Z" fill="#EB4335"/>
</g>
<defs>
<clipPath id="clip0_20_502">
<rect width="30" height="30" fill="white"/>
</clipPath>
</defs>
</svg>
