<svg width="130" height="130" viewBox="0 0 130 130" fill="none" xmlns="http://www.w3.org/2000/svg">
<path d="M59.6498 4.2212C62.7871 1.74589 67.2129 1.74589 70.3502 4.2212C72.7115 6.08419 75.8719 6.58475 78.6933 5.54261C82.442 4.15796 86.6512 5.52558 88.8701 8.84923C90.5401 11.3507 93.3911 12.8034 96.3965 12.6841C100.39 12.5257 103.97 15.127 105.053 18.9737C105.869 21.8688 108.131 24.1314 111.026 24.9467C114.873 26.0299 117.474 29.6104 117.316 33.6035C117.197 36.6089 118.649 39.4599 121.151 41.1299C124.474 43.3489 125.842 47.558 124.457 51.3067C123.415 54.1281 123.916 57.2885 125.779 59.6498C128.254 62.7871 128.254 67.2129 125.779 70.3502C123.916 72.7115 123.415 75.8719 124.457 78.6933C125.842 82.442 124.474 86.6512 121.151 88.8701C118.649 90.5401 117.197 93.3911 117.316 96.3965C117.474 100.39 114.873 103.97 111.026 105.053C108.131 105.869 105.869 108.131 105.053 111.026C103.97 114.873 100.39 117.474 96.3965 117.316C93.3911 117.197 90.5401 118.649 88.8701 121.151C86.6512 124.474 82.442 125.842 78.6933 124.457C75.8719 123.415 72.7115 123.916 70.3502 125.779C67.2129 128.254 62.7871 128.254 59.6498 125.779C57.2885 123.916 54.1281 123.415 51.3067 124.457C47.558 125.842 43.3489 124.474 41.1299 121.151C39.4599 118.649 36.6089 117.197 33.6035 117.316C29.6104 117.474 26.0299 114.873 24.9467 111.026C24.1314 108.131 21.8688 105.869 18.9737 105.053C15.127 103.97 12.5257 100.39 12.6841 96.3965C12.8034 93.3911 11.3507 90.5401 8.84923 88.8701C5.52558 86.6512 4.15796 82.442 5.54261 78.6933C6.58475 75.8719 6.08419 72.7115 4.2212 70.3502C1.74589 67.2129 1.74589 62.7871 4.2212 59.6498C6.08419 57.2885 6.58475 54.1281 5.54261 51.3067C4.15796 47.558 5.52558 43.3489 8.84923 41.1299C11.3507 39.4599 12.8034 36.6089 12.6841 33.6035C12.5257 29.6104 15.127 26.0299 18.9737 24.9467C21.8688 24.1314 24.1314 21.8688 24.9467 18.9737C26.0299 15.127 29.6104 12.5257 33.6035 12.6841C36.6089 12.8034 39.4599 11.3507 41.1299 8.84923C43.3489 5.52558 47.558 4.15796 51.3067 5.54261C54.1281 6.58475 57.2885 6.08419 59.6498 4.2212Z" fill="#FF0000"/>
<path d="M73.1003 90.675H72.7753C61.6753 90.675 56.3253 86.3 55.4003 76.5C55.3003 75.475 56.0503 74.55 57.1003 74.45C58.1003 74.35 59.0503 75.125 59.1503 76.15C59.8753 84 63.5753 86.925 72.8003 86.925H73.1253C83.3003 86.925 86.9003 83.325 86.9003 73.15V56.85C86.9003 46.675 83.3003 43.075 73.1253 43.075H72.8003C63.5253 43.075 59.8253 46.05 59.1503 54.05C59.0253 55.075 58.1503 55.85 57.1003 55.75C56.0503 55.675 55.3003 54.75 55.3753 53.725C56.2253 43.775 61.6003 39.325 72.7753 39.325H73.1003C85.3753 39.325 90.6253 44.575 90.6253 56.85V73.15C90.6253 85.425 85.3753 90.675 73.1003 90.675Z" fill="white"/>
<path d="M72.4998 66.875H44.0498C43.0248 66.875 42.1748 66.025 42.1748 65C42.1748 63.975 43.0248 63.125 44.0498 63.125H72.4998C73.5248 63.125 74.3748 63.975 74.3748 65C74.3748 66.025 73.5248 66.875 72.4998 66.875Z" fill="white"/>
<path d="M49.6246 75.25C49.1496 75.25 48.6746 75.075 48.2996 74.7L39.9246 66.325C39.1996 65.6 39.1996 64.4 39.9246 63.675L48.2996 55.3C49.0246 54.575 50.2246 54.575 50.9496 55.3C51.6746 56.025 51.6746 57.225 50.9496 57.95L43.8996 65L50.9496 72.05C51.6746 72.775 51.6746 73.975 50.9496 74.7C50.5996 75.075 50.0996 75.25 49.6246 75.25Z" fill="white"/>
</svg>
