<svg width="40" height="40" viewBox="0 0 40 40" fill="none" xmlns="http://www.w3.org/2000/svg">
<rect width="40" height="40" rx="8" fill="white"/>
<path d="M14.1663 10.8333C13.383 10.8333 12.658 11.1083 12.083 11.5667C11.3163 12.175 10.833 13.1166 10.833 14.1666C10.833 16.0083 12.3247 17.5 14.1663 17.5C15.008 17.5 15.7747 17.1833 16.3664 16.6666C17.058 16.0583 17.4997 15.1666 17.4997 14.1666C17.4997 12.325 16.008 10.8333 14.1663 10.8333ZM14.9997 14.375C14.9997 14.5916 14.883 14.8 14.6997 14.9083L13.658 15.5333C13.558 15.5917 13.4497 15.625 13.3413 15.625C13.133 15.625 12.9247 15.5167 12.808 15.325C12.633 15.025 12.7247 14.6416 13.0247 14.4666L13.7664 14.025V13.125C13.7664 12.7833 14.0497 12.5 14.3914 12.5C14.733 12.5 15.0164 12.7833 15.0164 13.125V14.375H14.9997Z" fill="#FFB709"/>
<path opacity="0.4" d="M22.5003 12.5V20C22.5003 20.9167 21.7503 21.6667 20.8337 21.6667H11.667V16.35C12.2753 17.075 13.2087 17.525 14.242 17.5C15.0837 17.4834 15.842 17.1584 16.4087 16.6167C16.667 16.4 16.8837 16.125 17.0503 15.825C17.3503 15.3167 17.517 14.7167 17.5003 14.0917C17.4753 13.1167 17.042 12.2584 16.367 11.6667H21.667C22.1253 11.6667 22.5003 12.0417 22.5003 12.5Z" fill="#FFB709"/>
<path d="M28.3337 21.6667V24.1667C28.3337 25.55 27.217 26.6667 25.8337 26.6667H25.0003C25.0003 25.75 24.2503 25 23.3337 25C22.417 25 21.667 25.75 21.667 26.6667H18.3337C18.3337 25.75 17.5837 25 16.667 25C15.7503 25 15.0003 25.75 15.0003 26.6667H14.167C12.7837 26.6667 11.667 25.55 11.667 24.1667V21.6667H20.8337C21.7503 21.6667 22.5003 20.9167 22.5003 20V14.1667H24.0337C24.6337 14.1667 25.1837 14.4917 25.4837 15.0084L26.9086 17.5H25.8337C25.3753 17.5 25.0003 17.875 25.0003 18.3334V20.8334C25.0003 21.2917 25.3753 21.6667 25.8337 21.6667H28.3337Z" fill="#FFB709"/>
<path opacity="0.4" d="M16.6667 28.3333C17.5871 28.3333 18.3333 27.5871 18.3333 26.6667C18.3333 25.7462 17.5871 25 16.6667 25C15.7462 25 15 25.7462 15 26.6667C15 27.5871 15.7462 28.3333 16.6667 28.3333Z" fill="#FFB709"/>
<path opacity="0.4" d="M23.3337 28.3333C24.2541 28.3333 25.0003 27.5871 25.0003 26.6667C25.0003 25.7462 24.2541 25 23.3337 25C22.4132 25 21.667 25.7462 21.667 26.6667C21.667 27.5871 22.4132 28.3333 23.3337 28.3333Z" fill="#FFB709"/>
<path opacity="0.4" d="M28.3333 20.4417V21.6667H25.8333C25.375 21.6667 25 21.2917 25 20.8333V18.3333C25 17.875 25.375 17.5 25.8333 17.5H26.9083L28.1167 19.6166C28.2583 19.8666 28.3333 20.15 28.3333 20.4417Z" fill="#FFB709"/>
</svg>
