<svg width="57" height="34" viewBox="0 0 57 34" fill="none" xmlns="http://www.w3.org/2000/svg">
<rect width="56.2" height="34" rx="4.25" fill="white"/>
<rect x="0.5" y="0.5" width="55.2" height="33" rx="3.75" stroke="#CCD2E3" stroke-opacity="0.31"/>
<path fill-rule="evenodd" clip-rule="evenodd" d="M24.157 26.135L24.5219 24.0821L23.7091 24.0653H19.8281L22.5253 8.91603C22.5337 8.87016 22.5608 8.82757 22.6005 8.79728C22.6404 8.76698 22.6912 8.75037 22.7443 8.75037H29.2883C31.461 8.75037 32.9602 9.15077 33.7429 9.94118C34.1099 10.312 34.3436 10.6996 34.4567 11.1259C34.5753 11.5734 34.5773 12.108 34.4616 12.7601L34.4532 12.8075V13.2254L34.8202 13.4096C35.1292 13.5548 35.3748 13.721 35.5632 13.9113C35.877 14.2284 36.0801 14.6314 36.1658 15.109C36.2546 15.6003 36.2253 16.1851 36.0801 16.847C35.9126 17.6084 35.6419 18.2715 35.2763 18.8141C34.9402 19.314 34.5118 19.7288 34.0032 20.0501C33.5175 20.3554 32.9407 20.5872 32.2884 20.7356C31.6562 20.8813 30.9355 20.9549 30.145 20.9549H29.6358C29.2717 20.9549 28.918 21.0711 28.6403 21.2793C28.3618 21.4919 28.1777 21.7824 28.1213 22.1L28.0828 22.2849L27.4381 25.9034L27.409 26.0362C27.4012 26.0782 27.3879 26.0992 27.3683 26.1134C27.3509 26.1264 27.3259 26.135 27.3015 26.135H24.157Z" fill="#28356A"/>
<path fill-rule="evenodd" clip-rule="evenodd" d="M35.1675 12.8558C35.1481 12.9664 35.1256 13.0794 35.1006 13.1956C34.2377 17.1207 31.2851 18.4766 27.5143 18.4766H25.5943C25.1331 18.4766 24.7445 18.7732 24.6727 19.1762L23.4113 26.2641C23.3646 26.5288 23.5948 26.7672 23.8961 26.7672H27.3015C27.7046 26.7672 28.0472 26.5077 28.1107 26.1554L28.1441 26.0022L28.7853 22.3979L28.8265 22.2002C28.8893 21.8467 29.2326 21.587 29.6358 21.587H30.145C33.4443 21.587 36.0271 20.4006 36.782 16.9668C37.0972 15.5324 36.934 14.3346 36.0996 13.4923C35.8471 13.2383 35.5339 13.0275 35.1675 12.8558Z" fill="#298FC2"/>
<path fill-rule="evenodd" clip-rule="evenodd" d="M34.2649 12.537C34.133 12.5028 33.997 12.472 33.8575 12.4442C33.7172 12.417 33.5736 12.3929 33.4256 12.3718C32.908 12.2977 32.3407 12.2626 31.7331 12.2626H26.604C26.4775 12.2626 26.3575 12.2878 26.2503 12.3335C26.0136 12.4343 25.8379 12.6327 25.7953 12.8756L24.7041 18.9977L24.6729 19.1762C24.7446 18.7732 25.1333 18.4767 25.5944 18.4767H27.5144C31.2852 18.4767 34.2378 17.12 35.1007 13.1956C35.1265 13.0795 35.1482 12.9664 35.1676 12.8558C34.9493 12.7532 34.7128 12.6654 34.4582 12.5906C34.3953 12.5721 34.3304 12.5543 34.2649 12.537Z" fill="#22284F"/>
<path fill-rule="evenodd" clip-rule="evenodd" d="M25.7952 12.8756C25.8378 12.6327 26.0134 12.4343 26.2501 12.3343C26.3582 12.2884 26.4774 12.2631 26.6038 12.2631H31.7329C32.3405 12.2631 32.9078 12.2984 33.4255 12.3725C33.5734 12.3935 33.717 12.4177 33.8573 12.4449C33.9969 12.4726 34.1329 12.5036 34.2648 12.5375C34.3302 12.5548 34.3951 12.5728 34.4586 12.5906C34.7133 12.6654 34.9499 12.7539 35.1682 12.8558C35.425 11.4054 35.166 10.4178 34.2808 9.52348C33.3047 8.53884 31.5432 8.11749 29.289 8.11749H22.7449C22.2845 8.11749 21.8917 8.41403 21.8206 8.81772L19.0949 24.1228C19.0411 24.4256 19.3047 24.6987 19.6495 24.6987H23.6895L25.7952 12.8756Z" fill="#28356A"/>
</svg>
