<svg width="57" height="34" viewBox="0 0 57 34" fill="none" xmlns="http://www.w3.org/2000/svg">
<rect x="0.200195" y="0.200012" width="56.2" height="33.6" rx="4.2" fill="white"/>
<rect x="0.700195" y="0.700012" width="55.2" height="32.6" rx="3.7" stroke="#CCD2E3" stroke-opacity="0.31"/>
<path fill-rule="evenodd" clip-rule="evenodd" d="M17.2612 22.9616H13.8566L11.3035 14.4694C11.1823 14.0787 10.925 13.7334 10.5466 13.5706C9.60202 13.1616 8.56121 12.836 7.42578 12.6718V12.3449H12.9104C13.6673 12.3449 14.235 12.836 14.3297 13.4064L15.6543 19.5321L19.0573 12.3449H22.3673L17.2612 22.9616ZM24.2597 22.9616H21.0444L23.692 12.3449H26.9074L24.2597 22.9616ZM31.0672 15.286C31.1618 14.7142 31.7295 14.3873 32.3919 14.3873C33.4327 14.3052 34.5665 14.4694 35.5126 14.877L36.0804 12.5912C35.1342 12.2642 34.0934 12.1 33.1488 12.1C30.0281 12.1 27.7572 13.5706 27.7572 15.6116C27.7572 17.1642 29.3657 17.9795 30.5012 18.4706C31.7295 18.9603 32.2026 19.2873 32.108 19.777C32.108 20.5116 31.1618 20.8385 30.2173 20.8385C29.0819 20.8385 27.9464 20.5937 26.9073 20.1846L26.3396 22.4719C27.475 22.8795 28.7034 23.0437 29.8388 23.0437C33.3381 23.1244 35.5126 21.6552 35.5126 19.4501C35.5126 16.6731 31.0672 16.5103 31.0672 15.286ZM46.7658 22.9616L44.2128 12.3449H41.4705C40.9028 12.3449 40.335 12.6718 40.1458 13.1616L35.4182 22.9616H38.7282L39.3889 21.4103H43.4558L43.8343 22.9616H46.7658ZM41.9436 15.2039L42.8881 19.2052H40.2404L41.9436 15.2039Z" fill="#172B85"/>
</svg>
