<svg width="57" height="34" viewBox="0 0 57 34" fill="none" xmlns="http://www.w3.org/2000/svg">
<rect x="0.400391" width="56.2" height="34" rx="4.25" fill="white"/>
<rect x="0.900391" y="0.5" width="55.2" height="33" rx="3.75" stroke="#CCD2E3" stroke-opacity="0.31"/>
<path fill-rule="evenodd" clip-rule="evenodd" d="M28.8172 24.623C26.9039 26.0797 24.422 26.9591 21.71 26.9591C15.6586 26.9591 10.7529 22.5808 10.7529 17.1799C10.7529 11.7789 15.6586 7.40063 21.71 7.40063C24.422 7.40063 26.9039 8.28004 28.8172 9.73677C30.7306 8.28004 33.2125 7.40063 35.9245 7.40063C41.9759 7.40063 46.8815 11.7789 46.8815 17.1799C46.8815 22.5808 41.9759 26.9591 35.9245 26.9591C33.2125 26.9591 30.7306 26.0797 28.8172 24.623Z" fill="#ED0006"/>
<path fill-rule="evenodd" clip-rule="evenodd" d="M28.8174 24.6229C31.1732 22.8292 32.6671 20.1602 32.6671 17.1799C32.6671 14.1995 31.1732 11.5305 28.8174 9.73681C30.7307 8.28005 33.2126 7.40063 35.9247 7.40063C41.9761 7.40063 46.8817 11.7789 46.8817 17.1799C46.8817 22.5808 41.9761 26.9591 35.9247 26.9591C33.2126 26.9591 30.7307 26.0797 28.8174 24.6229Z" fill="#F9A000"/>
<path fill-rule="evenodd" clip-rule="evenodd" d="M28.8175 24.6229C31.1733 22.8292 32.6672 20.1603 32.6672 17.1799C32.6672 14.1995 31.1733 11.5305 28.8175 9.73682C26.4616 11.5305 24.9678 14.1995 24.9678 17.1799C24.9678 20.1603 26.4616 22.8292 28.8175 24.6229Z" fill="#FF5E00"/>
</svg>
