<svg width="57" height="34" viewBox="0 0 57 34" fill="none" xmlns="http://www.w3.org/2000/svg">
<rect x="0.599609" width="56.2" height="34" rx="4.25" fill="white"/>
<rect x="1.09961" y="0.5" width="55.2" height="33" rx="3.75" stroke="#CCD2E3" stroke-opacity="0.31"/>
<path d="M15.6607 12.2203H8.02063C7.02568 12.2203 6.21973 12.9379 6.21973 13.8223V20.62C6.21973 21.5043 7.02568 22.222 8.02063 22.222H15.6607C16.6556 22.222 17.4605 21.5043 17.4605 20.62V13.8223C17.4616 12.937 16.6556 12.2203 15.6607 12.2203Z" fill="#1677FF"/>
<path d="M15.4745 18.5008C15.0253 18.3669 14.4211 18.1617 13.749 17.9453C14.1525 17.3204 14.4753 16.6094 14.6877 15.8365H12.4716V15.1263H15.1857V14.7301H12.4716V13.5459H11.3641C11.1697 13.5459 11.1697 13.7164 11.1697 13.7164V14.7291H8.42485V15.1254H11.1697V15.8355H8.90268V16.2318H13.2988C13.1384 16.7246 12.9218 17.1883 12.6659 17.609C11.2398 17.1902 9.71712 16.8511 8.76146 17.06C8.14983 17.1939 7.75588 17.4328 7.52439 17.6839C6.46254 18.8334 7.22389 20.5797 9.46653 20.5797C10.7928 20.5797 12.0702 19.922 13.0598 18.8381C14.5369 19.4695 17.4602 20.5544 17.4602 20.5544V19.0086C17.4612 19.0086 17.0938 18.9824 15.4745 18.5008ZM9.25734 19.9117C7.50847 19.9117 6.99134 18.6863 7.85569 18.0156C8.14452 17.7888 8.6712 17.6783 8.95153 17.6539C9.99002 17.5631 10.9521 17.9153 12.0872 18.4081C11.2897 19.3337 10.2735 19.9117 9.25734 19.9117Z" fill="white"/>
<path d="M30.6289 13.6845C30.6289 14.2017 31.0579 14.5502 31.6557 14.5502C32.2535 14.5502 32.6825 14.2017 32.6825 13.6845C32.6825 13.1768 32.2535 12.8189 31.6557 12.8189C31.0579 12.8189 30.6289 13.1768 30.6289 13.6845Z" fill="#1677FF"/>
<path d="M29.5455 13.0372H27.7637V20.3014H29.5455V13.0372Z" fill="#151515"/>
<path d="M24.6392 13.2864H22.2479L19.5752 20.3024H21.2221L21.6734 18.929H24.5043L24.9333 20.3024H27.0422L24.6392 13.2864ZM22.0451 17.7841L23.1048 14.5502H23.1494L24.1528 17.7841H22.0451Z" fill="#151515"/>
<path d="M32.5464 14.968H30.7646V20.3024H32.5464V14.968Z" fill="#151515"/>
<path d="M51.1685 14.9783L51.1791 14.968H49.4993L48.4385 18.2123H48.3822L47.1643 14.968H45.168L47.5699 20.322L46.5664 21.954V21.9934H48.1337L51.1685 14.9783Z" fill="#151515"/>
<path d="M36.9789 14.8584C36.3248 14.8584 35.8173 15.0776 35.2418 15.4954V14.968H33.46V21.9934H35.2418V20.2518C35.5805 20.3314 35.8959 20.3717 36.2792 20.3717C37.8698 20.3717 39.3023 19.3365 39.3023 17.4956C39.3023 15.844 38.2649 14.8584 36.9789 14.8584ZM35.8502 19.3861C35.6474 19.3861 35.4552 19.3665 35.2407 19.3065V16.421C35.6134 16.1925 35.9171 16.0828 36.3004 16.0828C36.9662 16.0828 37.4961 16.5503 37.4961 17.5462C37.4971 18.8194 36.7188 19.3861 35.8502 19.3861Z" fill="#151515"/>
<path d="M44.8177 18.9683V16.7396C44.8177 15.5254 44.0054 14.8584 42.5729 14.8584C41.6587 14.8584 41.0279 14.998 39.8769 15.3062L40.1922 16.5307C41.2413 16.1128 41.7033 15.9339 42.1885 15.9339C42.7747 15.9339 43.0348 16.3021 43.0348 16.8698V16.9091C40.9929 17.2473 40.3611 17.4366 39.9671 17.7851C39.674 18.0436 39.5498 18.4118 39.5498 18.84C39.5498 19.8649 40.4524 20.412 41.2976 20.412C41.9294 20.412 42.437 20.2031 43.1251 19.7449L43.2493 20.3024H45.0311L44.8177 18.9683ZM43.0359 19.0086C42.5623 19.2372 42.2915 19.3271 41.9761 19.3271C41.5472 19.3271 41.2764 19.0779 41.2764 18.6807C41.2764 18.5317 41.3104 18.3818 41.4452 18.2629C41.6597 18.0736 42.077 17.934 43.0359 17.7354V19.0086Z" fill="#151515"/>
</svg>
