<svg width="57" height="34" viewBox="0 0 57 34" fill="none" xmlns="http://www.w3.org/2000/svg">
<rect x="0.799805" width="56.2" height="34" rx="4.25" fill="#1F72CD"/>
<rect x="1.2998" y="0.5" width="55.2" height="33" rx="3.75" stroke="#CCD2E3" stroke-opacity="0.31"/>
<path fill-rule="evenodd" clip-rule="evenodd" d="M10.8754 12.0417L5.61719 22.3079H11.912L12.6923 20.671H14.4761L15.2565 22.3079H22.1853V21.0586L22.8027 22.3079H26.3868L27.0042 21.0322V22.3079H41.4142L43.1664 20.7136L44.8071 22.3079L52.2083 22.3211L46.9335 17.2035L52.2083 12.0417H44.9218L43.2162 13.6066L41.6272 12.0417H25.951L24.6049 14.6915L23.2272 12.0417H16.9455V13.2485L16.2467 12.0417H10.8754ZM12.0934 13.4995H15.1618L18.6496 20.4611V13.4995H22.0108L24.7047 18.4909L27.1875 13.4995H30.5319V20.8662H28.4969L28.4803 15.0937L25.5134 20.8662H23.6929L20.7094 15.0937V20.8662H16.5229L15.7292 19.2147H11.4412L10.6491 20.8647H8.40601L12.0934 13.4995ZM40.6687 13.4995H32.3938V20.8618H40.5406L43.1664 18.4218L45.6973 20.8618H48.343L44.4975 17.202L48.343 13.4995H45.8121L43.1996 15.9115L40.6687 13.4995ZM13.5862 14.7459L12.1734 17.6879H14.9972L13.5862 14.7459ZM34.4371 16.3696V15.0248V15.0235H39.6004L41.8533 17.1741L39.5005 19.3365H34.4371V17.8684H38.9514V16.3696H34.4371Z" fill="white"/>
</svg>
