<svg width="18" height="17" viewBox="0 0 18 17" fill="none" xmlns="http://www.w3.org/2000/svg">
<path fill-rule="evenodd" clip-rule="evenodd" d="M10.5718 1.21426C10.4107 1.21426 10.2563 1.15029 10.1425 1.03643C10.0286 0.922575 9.96463 0.76815 9.96463 0.607129C9.96463 0.446108 10.0286 0.291683 10.1425 0.177824C10.2563 0.0639652 10.4107 0 10.5718 0H16.6432C16.8042 0 16.9586 0.0639652 17.0725 0.177824C17.1864 0.291683 17.2503 0.446108 17.2503 0.607129V6.67842C17.2503 6.83944 17.1864 6.99387 17.0725 7.10772C16.9586 7.22158 16.8042 7.28555 16.6432 7.28555C16.4822 7.28555 16.3277 7.22158 16.2139 7.10772C16.1 6.99387 16.036 6.83944 16.036 6.67842V2.07274L11.0223 7.08641C12.008 8.2924 12.4926 9.83112 12.3757 11.3843C12.2588 12.9375 11.5494 14.3864 10.3943 15.4313C9.23911 16.4761 7.72654 17.0371 6.16941 16.9981C4.61227 16.9591 3.12968 16.3231 2.02828 15.2218C0.926868 14.1204 0.290901 12.6378 0.251905 11.0807C0.212909 9.5236 0.773868 8.01106 1.81876 6.85593C2.86366 5.70079 4.31255 4.99142 5.86579 4.87454C7.41902 4.75765 8.95776 5.24218 10.1638 6.22793L15.1775 1.21426H10.5718ZM6.32179 6.07129C5.0336 6.07129 3.79817 6.58301 2.88729 7.49388C1.9764 8.40475 1.46467 9.64016 1.46467 10.9283C1.46467 12.2165 1.9764 13.4519 2.88729 14.3628C3.79817 15.2736 5.0336 15.7854 6.32179 15.7854C7.60998 15.7854 8.84541 15.2736 9.7563 14.3628C10.6672 13.4519 11.1789 12.2165 11.1789 10.9283C11.1789 9.64016 10.6672 8.40475 9.7563 7.49388C8.84541 6.58301 7.60998 6.07129 6.32179 6.07129V6.07129Z" fill="#969696"/>
</svg>
