<svg width="11" height="17" viewBox="0 0 11 17" fill="none" xmlns="http://www.w3.org/2000/svg">
<path fill-rule="evenodd" clip-rule="evenodd" d="M5.50018 1.06244C4.33323 1.06244 3.21407 1.51021 2.38891 2.30724C1.56375 3.10427 1.10018 4.18528 1.10018 5.31246C1.10018 6.43963 1.56375 7.52064 2.38891 8.31767C3.21407 9.1147 4.33323 9.56247 5.50018 9.56247C6.66714 9.56247 7.78629 9.1147 8.61145 8.31767C9.43661 7.52064 9.90018 6.43963 9.90018 5.31246C9.90018 4.18528 9.43661 3.10427 8.61145 2.30724C7.78629 1.51021 6.66714 1.06244 5.50018 1.06244V1.06244ZM0.000183106 5.31246C0.000196477 4.28439 0.309032 3.27842 0.889233 2.41653C1.46943 1.55465 2.29607 0.873892 3.2689 0.456818C4.24172 0.0397447 5.31893 -0.0957239 6.36989 0.066842C7.42084 0.229408 8.40039 0.683024 9.18972 1.37268C9.97906 2.06233 10.5443 2.95838 10.8168 3.95217C11.0894 4.94596 11.0575 5.99478 10.7252 6.97144C10.3928 7.94809 9.7742 8.81062 8.94439 9.45442C8.11457 10.0982 7.10919 10.4956 6.05018 10.5984V12.75H8.25018C8.39605 12.75 8.53595 12.806 8.63909 12.9056C8.74224 13.0052 8.80018 13.1403 8.80018 13.2812C8.80018 13.4221 8.74224 13.5573 8.63909 13.6569C8.53595 13.7565 8.39605 13.8125 8.25018 13.8125H6.05018V16.4687C6.05018 16.6096 5.99224 16.7448 5.88909 16.8444C5.78595 16.944 5.64605 17 5.50018 17C5.35431 17 5.21442 16.944 5.11127 16.8444C5.00813 16.7448 4.95018 16.6096 4.95018 16.4687V13.8125H2.75018C2.60431 13.8125 2.46442 13.7565 2.36127 13.6569C2.25813 13.5573 2.20018 13.4221 2.20018 13.2812C2.20018 13.1403 2.25813 13.0052 2.36127 12.9056C2.46442 12.806 2.60431 12.75 2.75018 12.75H4.95018V10.5984C3.59354 10.4667 2.3359 9.85297 1.42125 8.87624C0.506606 7.89952 0.000165977 6.62946 0.000183106 5.31246V5.31246Z" fill="#969696"/>
</svg>
