<svg width="24" height="17" viewBox="0 0 24 17" fill="none" xmlns="http://www.w3.org/2000/svg">
<path d="M8.12978 0.222229C7.7151 0.222227 7.30529 0.311497 6.92818 0.483972C6.55108 0.656447 6.21553 0.908086 5.94433 1.22178L1.16178 6.75545C0.823783 7.14787 0.638192 7.64876 0.638887 8.16667V12.5C0.638887 13.4577 1.01934 14.3762 1.69656 15.0534C2.37377 15.7307 3.29227 16.1111 4.25 16.1111H7.13889C8.09661 16.1111 9.01511 15.7307 9.69233 15.0534C10.3695 14.3762 10.75 13.4577 10.75 12.5V10.3333H13.6389V12.5C13.6389 13.4577 14.0193 14.3762 14.6966 15.0534C15.3738 15.7307 16.2923 16.1111 17.25 16.1111H20.1389C21.0966 16.1111 22.0151 15.7307 22.6923 15.0534C23.3695 14.3762 23.75 13.4577 23.75 12.5V8.16667C23.75 7.54701 23.49 6.98945 23.074 6.59512L18.4446 1.22467C18.1735 0.910263 17.8378 0.657973 17.4604 0.484985C17.083 0.311998 16.6728 0.222378 16.2577 0.222229H15.0833C14.8918 0.222229 14.7081 0.29832 14.5726 0.433763C14.4372 0.569206 14.3611 0.752906 14.3611 0.944451C14.3611 1.136 14.4372 1.3197 14.5726 1.45514C14.7081 1.59058 14.8918 1.66667 15.0833 1.66667H16.2577C16.4652 1.66675 16.6704 1.71156 16.859 1.79805C17.0477 1.88455 17.2156 2.01069 17.3511 2.1679L20.6546 6.00001H15.8056C15.2309 6.00001 14.6798 6.22828 14.2735 6.63461C13.8672 7.04094 13.6389 7.59204 13.6389 8.16667V8.8889H10.75V8.16667C10.75 7.59204 10.5217 7.04094 10.1154 6.63461C9.70907 6.22828 9.15797 6.00001 8.58333 6.00001H3.72278L7.03778 2.16645C7.1733 2.00969 7.34096 1.88393 7.52937 1.7977C7.71779 1.71146 7.92256 1.66678 8.12978 1.66667H9.30555C9.4971 1.66667 9.6808 1.59058 9.81624 1.45514C9.95169 1.3197 10.0278 1.136 10.0278 0.944451C10.0278 0.752906 9.95169 0.569206 9.81624 0.433763C9.6808 0.29832 9.4971 0.222229 9.30555 0.222229H8.12978ZM9.30555 8.16667V12.5C9.30555 13.0746 9.07728 13.6257 8.67095 14.0321C8.26462 14.4384 7.71352 14.6667 7.13889 14.6667H4.25C3.67536 14.6667 3.12426 14.4384 2.71793 14.0321C2.31161 13.6257 2.08333 13.0746 2.08333 12.5V8.16667C2.08333 7.97513 2.15942 7.79143 2.29487 7.65598C2.43031 7.52054 2.61401 7.44445 2.80555 7.44445H8.58333C8.77488 7.44445 8.95858 7.52054 9.09402 7.65598C9.22946 7.79143 9.30555 7.97513 9.30555 8.16667ZM15.0833 12.5V8.16667C15.0833 7.97513 15.1594 7.79143 15.2949 7.65598C15.4303 7.52054 15.614 7.44445 15.8056 7.44445H21.5833C21.7567 7.44445 21.9156 7.50512 22.0398 7.60767L22.1192 7.69867L22.1279 7.6929C22.2425 7.82409 22.3057 7.99244 22.3056 8.16667V12.5C22.3056 13.0746 22.0773 13.6257 21.6709 14.0321C21.2646 14.4384 20.7135 14.6667 20.1389 14.6667H17.25C16.6754 14.6667 16.1243 14.4384 15.7179 14.0321C15.3116 13.6257 15.0833 13.0746 15.0833 12.5Z" fill="#969696"/>
</svg>
