<svg width="8" height="8" viewBox="0 0 8 8" fill="none" xmlns="http://www.w3.org/2000/svg">
<path d="M5.70236 4.66724C5.62787 4.73943 5.59365 4.84383 5.61061 4.94622L5.86629 6.36123C5.88786 6.48116 5.83725 6.60253 5.73687 6.67185C5.63851 6.74375 5.50765 6.75237 5.40037 6.69485L4.12658 6.03049C4.08228 6.0069 4.0331 5.99425 3.98277 5.99281H3.90483C3.8778 5.99684 3.85134 6.00547 3.82718 6.0187L2.55309 6.68623C2.49011 6.71786 2.41878 6.72908 2.34889 6.71786C2.17863 6.68565 2.06503 6.52344 2.09293 6.35232L2.34889 4.9373C2.36586 4.83405 2.33164 4.72908 2.25715 4.65574L1.21861 3.64912C1.13175 3.56486 1.10155 3.43831 1.14124 3.32413C1.17978 3.21024 1.27814 3.12712 1.39692 3.10843L2.82632 2.90107C2.93503 2.88985 3.03052 2.8237 3.07941 2.72591L3.70926 1.43457C3.72422 1.40581 3.74349 1.37935 3.76678 1.35692L3.79267 1.33679C3.80618 1.32183 3.82172 1.30946 3.83897 1.2994L3.87032 1.28789L3.91921 1.26776H4.04029C4.14843 1.27898 4.24363 1.34369 4.29339 1.44032L4.93158 2.72591C4.9776 2.81996 5.06704 2.88525 5.17029 2.90107L6.59968 3.10843C6.72048 3.12568 6.82143 3.20909 6.8614 3.32413C6.89908 3.43946 6.86658 3.56601 6.778 3.64912L5.70236 4.66724Z" fill="#FFD33C"/>
</svg>
