<svg width="10" height="9" viewBox="0 0 10 9" fill="none" xmlns="http://www.w3.org/2000/svg">
<path fill-rule="evenodd" clip-rule="evenodd" d="M6.00307 0.443852L7.13044 2.82199L9.43916 3.06687C9.67819 3.09006 9.87939 3.25567 9.9481 3.48579C10.0168 3.71591 9.93936 3.96472 9.75217 4.11518L7.91137 5.62883L8.48083 8.17344C8.53286 8.40465 8.44165 8.64457 8.24917 8.78284C8.05669 8.9211 7.80021 8.93094 7.59771 8.80782L5.46896 7.5127L3.33827 8.80718C3.13568 8.93005 2.8793 8.92012 2.68681 8.78195C2.49432 8.64378 2.4029 8.40405 2.45451 8.1728L3.02654 5.62883L1.18574 4.11518C0.999894 3.96433 0.923458 3.71624 0.992186 3.48696C1.06091 3.25768 1.26122 3.09254 1.4994 3.0688L3.80747 2.82392L4.93484 0.443852C5.03279 0.237659 5.24068 0.106262 5.46896 0.106262C5.69723 0.106262 5.90512 0.237659 6.00307 0.443852Z" fill="#FFB709"/>
</svg>
