<svg width="259" height="220" viewBox="0 0 259 220" fill="none" xmlns="http://www.w3.org/2000/svg">
<path d="M218.71 62.9022C226.059 63.6061 241.429 61.273 244.123 46.3087C246.818 31.3445 254.024 27.2011 257.29 27" stroke="#FFC200" stroke-width="3" stroke-linecap="round"/>
<path d="M129.71 66.9022C137.059 67.6061 152.429 65.273 155.123 50.3087C157.818 35.3445 165.024 31.2011 168.29 31" stroke="#FF0000" stroke-width="3" stroke-linecap="round"/>
<path d="M209.885 179.353C216.744 181.305 230.004 188.724 228.175 202.78" stroke="#6CC51D" stroke-width="3" stroke-linecap="round" stroke-linejoin="round"/>
<path d="M1.71045 174.31C12.2355 178.216 34.926 181.018 41.4872 160.976M41.4872 160.976C42.4441 155.454 41.4873 144.531 30.0054 145.016C27.8183 150.336 27.0527 160.976 41.4872 160.976ZM41.4872 160.976C46.2714 161.852 57.398 161.017 63.631 150.673" stroke="#6E89FA" stroke-width="3" stroke-linecap="round" stroke-linejoin="round"/>
<ellipse cx="175.735" cy="213.061" rx="7.04222" ry="6.93911" fill="#637BFE"/>
<path d="M239.295 105.939C239.295 109.488 236.373 112.378 232.753 112.378C229.133 112.378 226.21 109.488 226.21 105.939C226.21 102.39 229.133 99.5 232.753 99.5C236.373 99.5 239.295 102.39 239.295 105.939Z" stroke="#C05EFD"/>
<ellipse cx="130.521" cy="7.59892" rx="7.71182" ry="7.59892" fill="#53B175"/>
<ellipse cx="118.783" cy="37.0131" rx="4.07269" ry="4.01306" fill="#F3603F"/>
<path d="M63.4851 74.0328C63.4851 77.6339 60.5204 80.5657 56.8478 80.5657C53.1751 80.5657 50.2104 77.6339 50.2104 74.0328C50.2104 70.4318 53.1751 67.5 56.8478 67.5C60.5204 67.5 63.4851 70.4318 63.4851 74.0328Z" stroke="#F7B23B"/>
<path d="M86.3948 190.255C86.3948 194.243 83.112 197.488 79.0468 197.488C74.9816 197.488 71.6987 194.243 71.6987 190.255C71.6987 186.267 74.9816 183.022 79.0468 183.022C83.112 183.022 86.3948 186.267 86.3948 190.255Z" stroke="#53B175"/>
<ellipse cx="3.74931" cy="3.69442" rx="3.74931" ry="3.69442" transform="matrix(-1 0 0 1 157.587 201.409)" fill="#53B175"/>
<circle cx="132.787" cy="110.076" r="79.0761" fill="#FF0000"/>
<g filter="url(#filter0_d_39_522)">
<circle cx="132.787" cy="110.076" r="68.1416" stroke="white" stroke-opacity="0.7" stroke-width="2"/>
</g>
<path d="M167.927 92.7766C167.927 94.9297 167.082 97.0086 165.546 98.4936L129.829 133.093C128.216 134.578 126.066 135.469 123.838 135.469C121.611 135.469 119.46 134.578 117.924 133.093L100.027 115.793C98.4909 114.308 97.646 112.229 97.646 110.076C97.646 107.923 98.5677 105.918 100.104 104.359C101.717 102.874 103.791 102.057 106.018 101.983C108.246 101.983 110.32 102.8 111.933 104.285L123.838 115.793L153.641 86.9853C155.254 85.5004 157.327 84.6837 159.555 84.6837C161.782 84.7579 163.856 85.5746 165.469 87.1338C167.006 88.6187 167.927 90.6234 167.927 92.7766Z" fill="white"/>
<defs>
<filter id="filter0_d_39_522" x="59.645" y="39.9345" width="146.283" height="146.283" filterUnits="userSpaceOnUse" color-interpolation-filters="sRGB">
<feFlood flood-opacity="0" result="BackgroundImageFix"/>
<feColorMatrix in="SourceAlpha" type="matrix" values="0 0 0 0 0 0 0 0 0 0 0 0 0 0 0 0 0 0 127 0" result="hardAlpha"/>
<feOffset dy="3"/>
<feGaussianBlur stdDeviation="2"/>
<feColorMatrix type="matrix" values="0 0 0 0 0 0 0 0 0 0 0 0 0 0 0 0 0 0 0.12 0"/>
<feBlend mode="normal" in2="BackgroundImageFix" result="effect1_dropShadow_39_522"/>
<feBlend mode="normal" in="SourceGraphic" in2="effect1_dropShadow_39_522" result="shape"/>
</filter>
</defs>
</svg>
