<svg width="21" height="22" viewBox="0 0 21 22" fill="none" xmlns="http://www.w3.org/2000/svg">
<path d="M8.75 13.625L8.75 11" stroke="#4C4C4C" stroke-width="2" stroke-linecap="round"/>
<path d="M12.25 13.625L12.25 11" stroke="#4C4C4C" stroke-width="2" stroke-linecap="round"/>
<path d="M2.625 6.625H18.375V6.625C17.7939 6.625 17.5033 6.625 17.264 6.68494C16.5482 6.86425 15.9892 7.42319 15.8099 8.13904C15.75 8.37832 15.75 8.66888 15.75 9.25V14C15.75 15.8856 15.75 16.8284 15.1642 17.4142C14.5784 18 13.6356 18 11.75 18H9.25C7.36438 18 6.42157 18 5.83579 17.4142C5.25 16.8284 5.25 15.8856 5.25 14V9.25C5.25 8.66888 5.25 8.37832 5.19006 8.13904C5.01075 7.42319 4.45181 6.86425 3.73596 6.68494C3.49668 6.625 3.20612 6.625 2.625 6.625V6.625Z" stroke="#4C4C4C" stroke-width="2" stroke-linecap="round"/>
<path d="M8.80963 3.44927C8.90934 3.35624 9.12904 3.27404 9.43467 3.21541C9.74029 3.15678 10.1148 3.125 10.5 3.125C10.8852 3.125 11.2597 3.15678 11.5653 3.21541C11.871 3.27404 12.0907 3.35624 12.1904 3.44927" stroke="#4C4C4C" stroke-width="2" stroke-linecap="round"/>
</svg>
