<svg width="60" height="60" viewBox="0 0 60 60" fill="none" xmlns="http://www.w3.org/2000/svg">
<g opacity="0.2">
<path opacity="0.4" d="M55 35V42.5C55 46.65 51.65 50 47.5 50H45C45 47.25 42.75 45 40 45C37.25 45 35 47.25 35 50H25C25 47.25 22.75 45 20 45C17.25 45 15 47.25 15 50H12.5C8.35 50 5 46.65 5 42.5V35H32.5C35.25 35 37.5 32.75 37.5 30V12.5H42.1001C43.9001 12.5 45.55 13.475 46.45 15.025L50.7249 22.5H47.5C46.125 22.5 45 23.625 45 25V32.5C45 33.875 46.125 35 47.5 35H55Z" fill="white"/>
<path d="M20 55C22.7614 55 25 52.7614 25 50C25 47.2386 22.7614 45 20 45C17.2386 45 15 47.2386 15 50C15 52.7614 17.2386 55 20 55Z" fill="white"/>
<path d="M40 55C42.7614 55 45 52.7614 45 50C45 47.2386 42.7614 45 40 45C37.2386 45 35 47.2386 35 50C35 52.7614 37.2386 55 40 55Z" fill="white"/>
<path d="M55 31.3251V35H47.5C46.125 35 45 33.875 45 32.5V25C45 23.625 46.125 22.5 47.5 22.5H50.7249L54.35 28.8499C54.775 29.5999 55 30.4501 55 31.3251Z" fill="white"/>
<path d="M35 5H15C10.125 5 6.07504 8.5 5.20004 13.125H17.5C18.525 13.125 19.375 13.975 19.375 15C19.375 16.025 18.525 16.875 17.5 16.875H5V20.625H12.5C13.525 20.625 14.375 21.475 14.375 22.5C14.375 23.525 13.525 24.375 12.5 24.375H5V28.125H7.5C8.525 28.125 9.375 28.975 9.375 30C9.375 31.025 8.525 31.875 7.5 31.875H5V35H32.5C35.25 35 37.5 32.75 37.5 30V7.5C37.5 6.125 36.375 5 35 5Z" fill="white"/>
<path d="M5.20004 13.125H2.5C1.475 13.125 0.625 13.975 0.625 15C0.625 16.025 1.475 16.875 2.5 16.875H5V15C5 14.35 5.07504 13.725 5.20004 13.125Z" fill="white"/>
<path d="M2.5 20.625C1.475 20.625 0.625 21.475 0.625 22.5C0.625 23.525 1.475 24.375 2.5 24.375H5V20.625H2.5Z" fill="white"/>
<path d="M2.5 28.125C1.475 28.125 0.625 28.975 0.625 30C0.625 31.025 1.475 31.875 2.5 31.875H5V28.125H2.5Z" fill="white"/>
</g>
</svg>
