<svg width="11" height="17" viewBox="0 0 11 17" fill="none" xmlns="http://www.w3.org/2000/svg">
<path fill-rule="evenodd" clip-rule="evenodd" d="M5.50024 1.06244C4.33329 1.06244 3.21413 1.51021 2.38897 2.30724C1.56381 3.10427 1.10024 4.18528 1.10024 5.31246C1.10024 6.43963 1.56381 7.52064 2.38897 8.31767C3.21413 9.1147 4.33329 9.56247 5.50024 9.56247C6.6672 9.56247 7.78635 9.1147 8.61151 8.31767C9.43667 7.52064 9.90024 6.43963 9.90024 5.31246C9.90024 4.18528 9.43667 3.10427 8.61151 2.30724C7.78635 1.51021 6.6672 1.06244 5.50024 1.06244V1.06244ZM0.000244141 5.31246C0.000257512 4.28439 0.309093 3.27842 0.889294 2.41653C1.4695 1.55465 2.29614 0.873892 3.26896 0.456818C4.24178 0.0397447 5.319 -0.0957239 6.36995 0.066842C7.4209 0.229408 8.40045 0.683024 9.18978 1.37268C9.97912 2.06233 10.5443 2.95838 10.8169 3.95217C11.0894 4.94596 11.0576 5.99478 10.7252 6.97144C10.3929 7.94809 9.77426 8.81062 8.94445 9.45442C8.11463 10.0982 7.10925 10.4956 6.05024 10.5984V12.75H8.25024C8.39611 12.75 8.53601 12.806 8.63915 12.9056C8.7423 13.0052 8.80024 13.1403 8.80024 13.2812C8.80024 13.4221 8.7423 13.5573 8.63915 13.6569C8.53601 13.7565 8.39611 13.8125 8.25024 13.8125H6.05024V16.4687C6.05024 16.6096 5.9923 16.7448 5.88915 16.8444C5.78601 16.944 5.64611 17 5.50024 17C5.35438 17 5.21448 16.944 5.11134 16.8444C5.00819 16.7448 4.95024 16.6096 4.95024 16.4687V13.8125H2.75024C2.60438 13.8125 2.46448 13.7565 2.36134 13.6569C2.25819 13.5573 2.20024 13.4221 2.20024 13.2812C2.20024 13.1403 2.25819 13.0052 2.36134 12.9056C2.46448 12.806 2.60438 12.75 2.75024 12.75H4.95024V10.5984C3.5936 10.4667 2.33596 9.85297 1.42131 8.87624C0.506667 7.89952 0.000227012 6.62946 0.000244141 5.31246V5.31246Z" fill="white"/>
</svg>
