<svg width="18" height="17" viewBox="0 0 18 17" fill="none" xmlns="http://www.w3.org/2000/svg">
<path fill-rule="evenodd" clip-rule="evenodd" d="M10.5718 1.21424C10.4108 1.21424 10.2563 1.15028 10.1425 1.03642C10.0286 0.92256 9.96463 0.768134 9.96463 0.607114C9.96463 0.446093 10.0286 0.291667 10.1425 0.177809C10.2563 0.0639499 10.4108 -1.52588e-05 10.5718 -1.52588e-05H16.6432C16.8042 -1.52588e-05 16.9586 0.0639499 17.0725 0.177809C17.1864 0.291667 17.2503 0.446093 17.2503 0.607114V6.6784C17.2503 6.83942 17.1864 6.99385 17.0725 7.10771C16.9586 7.22157 16.8042 7.28553 16.6432 7.28553C16.4822 7.28553 16.3277 7.22157 16.2139 7.10771C16.1 6.99385 16.036 6.83942 16.036 6.6784V2.07272L11.0223 7.08639C12.008 8.29238 12.4926 9.8311 12.3757 11.3843C12.2588 12.9375 11.5494 14.3864 10.3943 15.4313C9.2391 16.4761 7.72654 17.0371 6.16941 16.9981C4.61227 16.9591 3.12968 16.3231 2.02828 15.2217C0.926868 14.1204 0.290901 12.6378 0.251905 11.0807C0.212909 9.52358 0.773868 8.01105 1.81876 6.85591C2.86366 5.70078 4.31255 4.99141 5.86579 4.87452C7.41902 4.75763 8.95776 5.24217 10.1638 6.22791L15.1775 1.21424H10.5718ZM6.32179 6.07128C5.0336 6.07128 3.79817 6.583 2.88729 7.49387C1.9764 8.40474 1.46467 9.64014 1.46467 10.9283C1.46467 12.2165 1.9764 13.4519 2.88729 14.3627C3.79817 15.2736 5.0336 15.7853 6.32179 15.7853C7.60998 15.7853 8.84541 15.2736 9.7563 14.3627C10.6672 13.4519 11.1789 12.2165 11.1789 10.9283C11.1789 9.64014 10.6672 8.40474 9.7563 7.49387C8.84541 6.583 7.60998 6.07128 6.32179 6.07128V6.07128Z" fill="white"/>
</svg>
