<svg width="24" height="24" viewBox="0 0 24 24" fill="none" xmlns="http://www.w3.org/2000/svg">
<path d="M5.68913 7.61925C5.97494 7.61925 6.20663 7.33954 6.20663 6.9945C6.20663 6.64946 5.97494 6.36975 5.68913 6.36975C5.40332 6.36975 5.17163 6.64946 5.17163 6.9945C5.17163 7.33954 5.40332 7.61925 5.68913 7.61925Z" fill="white"/>
<path d="M22.6875 16.8236C22.2559 16.1445 21.6011 15.2411 21.0889 15.0994C20.8061 14.8894 20.3693 14.7206 19.9013 14.5447L19.6628 14.454C19.6691 14.2654 19.611 14.1289 19.482 14.0385C18.693 13.4876 17.8928 12.6731 17.124 11.757C17.1446 11.703 17.1566 11.6445 17.1566 11.5815C17.1566 11.3449 16.9973 11.1533 16.8011 11.1533C16.7445 11.1533 16.6928 11.1581 16.6369 11.1589C16.4126 10.8743 16.1933 10.5859 15.9791 10.2938C16.0159 10.2266 16.0425 10.1505 16.0425 10.0642C16.0425 9.82725 15.8831 9.63562 15.6874 9.63562C15.669 9.63562 15.6049 9.636 15.507 9.63975C15.2571 9.28494 15.0112 8.92729 14.7694 8.56687C14.7848 8.51925 14.7949 8.46863 14.7949 8.415C14.7949 8.178 14.6359 7.986 14.4401 7.986C14.421 7.986 14.4038 7.9875 14.3854 7.9875C14.1576 7.63974 13.9317 7.29074 13.7078 6.9405C13.719 6.89812 13.7299 6.85463 13.7299 6.80813C13.7299 6.5715 13.5701 6.37988 13.3748 6.37988L13.35 6.38062C12.4365 4.95412 12.2704 4.73888 12.0173 4.73888C11.85 4.73888 11.6948 4.75013 11.5436 4.7655C11.4866 4.66313 11.4285 4.56375 11.3719 4.45987C11.1953 4.13662 10.818 3.75 10.0271 3.75C8.829 3.75 7.185 4.63988 6.22013 5.23425C5.3055 4.84613 4.52775 4.64513 3.91538 4.64513C3.29025 4.64513 2.99925 4.84875 2.87738 4.97212C2.86988 4.9785 2.86088 4.98225 2.85375 4.98975C2.1795 5.72625 1.74563 7.10325 1.467 8.46713C1.023 9.87975 0.974627 11.0299 0.981752 11.5601C0.954248 11.5923 0.930588 11.6275 0.911252 11.6651C0.652127 12.2033 0.705002 14.2916 1.0695 14.745C2.00438 15.9124 2.961 16.6691 3.97388 17.4705C5.1195 18.3769 6.30375 19.314 7.69575 20.9846C8.895 22.4246 11.3918 23.25 14.5466 23.25C18.7496 23.25 23.25 21.7579 23.25 19.5375C23.25 17.0932 22.9864 16.8352 22.6875 16.8236ZM22.2746 17.2009C21.462 18.4612 17.6891 19.1407 14.3674 19.1407C13.2585 19.1407 12.2798 19.0642 11.6104 18.9247C10.6834 18.7316 9.81 18.4121 8.991 18.0169C9.76013 17.0104 11.1521 16.854 12.5704 16.854C13.1213 16.854 13.6898 16.8788 14.2924 16.9058C14.9078 16.9328 15.5441 16.9605 16.1734 16.9605C17.6921 16.9605 19.6043 16.8097 21.0349 15.6589C21.291 15.8134 21.7999 16.4482 22.2746 17.2009ZM17.8144 13.7632C18.0315 13.9897 18.2363 14.2046 18.4121 14.3962C18.6525 14.6587 19.1655 14.8519 19.7078 15.0563C19.9883 15.162 20.2706 15.2704 20.4938 15.3802C19.2323 16.2832 17.6134 16.4141 16.1734 16.4141C15.5858 16.4141 14.9873 16.3886 14.4045 16.3627C14.4034 15.7654 14.3164 15.1579 14.169 14.7859C15.0191 14.2864 16.2413 13.8052 17.8144 13.7632ZM16.1786 12.0308C16.4647 12.343 16.7538 12.6524 17.046 12.9589C15.627 13.119 14.5144 13.5986 13.7209 14.088C13.4428 13.6959 13.1625 13.3054 12.8801 12.9165C13.6313 12.501 14.7056 12.1174 16.1786 12.0308ZM15.4688 11.2372C14.1124 11.4056 13.1055 11.8129 12.3851 12.2445C12.1586 11.9378 11.9363 11.6407 11.7195 11.3546C12.8153 10.8285 14.0726 10.623 14.8733 10.5435C15.0758 10.7846 15.2734 11.0137 15.4688 11.2372ZM11.2069 10.6871C10.936 10.338 10.6616 9.99163 10.3838 9.648C11.1735 9.30675 12.2378 8.98538 13.5596 8.8815C13.7801 9.17665 14.0053 9.46831 14.235 9.75638C13.3549 9.8835 12.2149 10.1468 11.2069 10.6871ZM14.2988 8.84775C14.4641 9.09525 14.6348 9.3465 14.811 9.60075C14.6123 9.35314 14.4169 9.10287 14.2249 8.85C14.2496 8.84925 14.2736 8.84775 14.2988 8.84775ZM13.2495 7.2405C13.4055 7.48388 13.5698 7.73887 13.7438 8.007C13.698 8.00925 13.6545 8.0145 13.6091 8.0175C13.4267 7.76241 13.2476 7.50501 13.0718 7.24537C13.1318 7.24387 13.1891 7.24125 13.2495 7.2405ZM9.82763 8.97675C9.56814 8.66813 9.30399 8.36347 9.03525 8.06287C9.84525 7.71225 10.971 7.37925 12.4316 7.27387C12.6139 7.54912 12.7965 7.81725 12.9788 8.07675C11.6494 8.24175 10.5971 8.60962 9.82763 8.97675ZM11.9411 5.28712C12.0739 5.42362 12.3743 5.87737 12.7106 6.39862C12.6476 6.40162 12.5843 6.40425 12.5224 6.408C12.2888 6.04071 12.0623 5.66902 11.8429 5.29312C11.8763 5.292 11.9066 5.28787 11.9411 5.28712ZM10.0271 4.29675C10.4509 4.29675 10.7333 4.43587 10.89 4.722C11.212 5.31082 11.5511 5.89019 11.9066 6.45938C10.3856 6.62475 9.23888 7.0275 8.433 7.4205C7.644 6.60488 6.97725 6.042 6.43838 5.745C7.34213 5.1825 8.937 4.29675 10.0271 4.29675ZM3.28913 5.3325C3.34688 5.29125 3.525 5.1915 3.915 5.1915C4.21725 5.1915 4.701 5.25712 5.41013 5.50537C4.45838 5.61262 3.93188 6.35963 3.50738 6.97613C3.23438 7.37138 2.97788 7.7445 2.73788 7.75725C2.59088 7.56975 2.85338 6.42338 3.28913 5.3325ZM2.181 7.79288C2.2005 7.89788 2.2335 7.98938 2.28225 8.06213C2.38275 8.21025 2.53875 8.29087 2.72175 8.29087C3.267 8.29087 3.60338 7.80263 3.95963 7.28513C4.38563 6.66788 4.8255 6.02963 5.64 6.02963C6.09525 6.02963 6.88275 6.61312 7.92563 7.68675C7.665 7.8375 7.46438 7.97512 7.31288 8.08725C7.27091 8.07314 7.22702 8.06555 7.18275 8.06475C6.89663 8.06475 6.66488 8.3445 6.66488 8.6895C6.66488 9.0345 6.89663 9.31425 7.18275 9.31425C7.43325 9.31425 7.64213 9.09938 7.69013 8.81363C7.9504 8.62498 8.22469 8.45649 8.51063 8.30963C8.78593 8.61435 9.05585 8.9239 9.32025 9.23813C9.07971 9.37187 8.84685 9.51898 8.62275 9.67875C8.57833 9.66281 8.53157 9.65432 8.48438 9.65363C8.19863 9.65363 7.96688 9.933 7.96688 10.2784C7.96688 10.6238 8.19863 10.9031 8.48438 10.9031C8.73075 10.9031 8.93588 10.6946 8.98838 10.416C9.26692 10.22 9.55917 10.0443 9.86288 9.89025C10.1415 10.2311 10.4303 10.5915 10.7276 10.9732C10.421 11.1756 10.1389 11.4128 9.88688 11.6801C9.873 11.6786 9.85988 11.6753 9.84563 11.6753C9.55875 11.6753 9.32738 11.955 9.32738 12.3C9.32738 12.6446 9.55875 12.9247 9.84563 12.9247C10.1258 12.9247 10.3534 12.654 10.3609 12.3173C10.6167 12.0468 10.9083 11.8125 11.2275 11.6209C11.4544 11.9186 11.6865 12.2265 11.9239 12.5452C11.6498 12.7426 11.3959 12.9667 11.166 13.2142C11.1544 13.2135 11.1431 13.2101 11.1315 13.2101C10.8461 13.2101 10.614 13.4903 10.614 13.8353C10.614 14.1799 10.8461 14.46 11.1315 14.46C11.4143 14.46 11.6423 14.1862 11.6479 13.8469C11.8781 13.6061 12.1334 13.3908 12.4095 13.2045C12.6973 13.5988 12.9824 13.9951 13.2649 14.3932C13.008 14.5768 12.7642 14.7779 12.5351 14.9951C12.5111 14.991 12.4875 14.9865 12.4631 14.9865C12.1766 14.9865 11.9453 15.2666 11.9453 15.6113C11.9453 15.9563 12.1766 16.236 12.4631 16.236C12.7309 16.236 12.9495 15.9881 12.975 15.6716C13.2039 15.4576 13.4482 15.2607 13.7059 15.0825C13.815 15.3915 13.8615 15.8745 13.8593 16.3403C13.4301 16.3204 13.0007 16.3093 12.5711 16.3069C10.9601 16.3069 9.375 16.5008 8.49225 17.7653C6.14625 16.5101 4.30575 14.6505 3.10013 13.287C3.12713 12.0705 2.82638 11.3104 2.52525 10.5833C2.274 9.975 2.037 9.399 2.0115 8.55375C2.06213 8.29837 2.118 8.04263 2.181 7.79288ZM2.01713 10.7914C2.247 11.3468 2.46375 11.8882 2.53388 12.6334C2.4345 12.516 2.3415 12.4054 2.256 12.3034C1.87688 11.8526 1.67663 11.6186 1.53038 11.5031C1.5322 10.9626 1.58215 10.4234 1.67963 9.89175C1.77788 10.2139 1.89863 10.5053 2.01713 10.7914ZM14.5466 22.7032C11.5553 22.7032 9.21263 21.9495 8.118 20.6359C6.68963 18.921 5.42813 17.9231 4.31513 17.0422C3.32738 16.2611 2.39475 15.5227 1.49813 14.4045C1.31513 14.1622 1.2405 12.6683 1.3485 12.0878C1.47825 12.2306 1.65863 12.4447 1.83488 12.6547C3.2955 14.3932 6.71625 18.4635 11.4986 19.4599C12.2033 19.6065 13.2225 19.6871 14.3674 19.6871C16.9369 19.6871 21.2981 19.2502 22.608 17.6805C22.6549 17.991 22.701 18.5479 22.701 19.5367C22.701 21.1942 18.8141 22.7032 14.5466 22.7032Z" fill="white"/>
</svg>
