<svg width="24" height="17" viewBox="0 0 24 17" fill="none" xmlns="http://www.w3.org/2000/svg">
<path d="M8.12981 0.222229C7.71513 0.222227 7.30532 0.311497 6.92822 0.483972C6.55111 0.656447 6.21556 0.908086 5.94436 1.22178L1.16181 6.75545C0.823813 7.14787 0.638223 7.64876 0.638918 8.16667V12.5C0.638918 13.4577 1.01937 14.3762 1.69659 15.0534C2.3738 15.7307 3.2923 16.1111 4.25003 16.1111H7.13892C8.09664 16.1111 9.01515 15.7307 9.69236 15.0534C10.3696 14.3762 10.75 13.4577 10.75 12.5V10.3333H13.6389V12.5C13.6389 13.4577 14.0194 14.3762 14.6966 15.0534C15.3738 15.7307 16.2923 16.1111 17.25 16.1111H20.1389C21.0966 16.1111 22.0151 15.7307 22.6924 15.0534C23.3696 14.3762 23.75 13.4577 23.75 12.5V8.16667C23.75 7.54701 23.49 6.98945 23.074 6.59512L18.4446 1.22467C18.1735 0.910263 17.8378 0.657973 17.4605 0.484985C17.0831 0.311998 16.6728 0.222378 16.2577 0.222229H15.0834C14.8918 0.222229 14.7081 0.29832 14.5727 0.433763C14.4372 0.569206 14.3611 0.752906 14.3611 0.944451C14.3611 1.136 14.4372 1.3197 14.5727 1.45514C14.7081 1.59058 14.8918 1.66667 15.0834 1.66667H16.2577C16.4653 1.66675 16.6704 1.71156 16.8591 1.79805C17.0478 1.88455 17.2156 2.01069 17.3511 2.1679L20.6546 6.00001H15.8056C15.2309 6.00001 14.6798 6.22828 14.2735 6.63461C13.8672 7.04094 13.6389 7.59204 13.6389 8.16667V8.8889H10.75V8.16667C10.75 7.59204 10.5218 7.04094 10.1154 6.63461C9.7091 6.22828 9.158 6.00001 8.58336 6.00001H3.72281L7.03781 2.16645C7.17333 2.00969 7.34099 1.88393 7.52941 1.7977C7.71782 1.71146 7.92259 1.66678 8.12981 1.66667H9.30558C9.49713 1.66667 9.68083 1.59058 9.81627 1.45514C9.95172 1.3197 10.0278 1.136 10.0278 0.944451C10.0278 0.752906 9.95172 0.569206 9.81627 0.433763C9.68083 0.29832 9.49713 0.222229 9.30558 0.222229H8.12981ZM9.30558 8.16667V12.5C9.30558 13.0746 9.07731 13.6257 8.67098 14.0321C8.26465 14.4384 7.71355 14.6667 7.13892 14.6667H4.25003C3.67539 14.6667 3.12429 14.4384 2.71796 14.0321C2.31164 13.6257 2.08336 13.0746 2.08336 12.5V8.16667C2.08336 7.97513 2.15945 7.79143 2.2949 7.65598C2.43034 7.52054 2.61404 7.44445 2.80558 7.44445H8.58336C8.77491 7.44445 8.95861 7.52054 9.09405 7.65598C9.22949 7.79143 9.30558 7.97513 9.30558 8.16667ZM15.0834 12.5V8.16667C15.0834 7.97513 15.1595 7.79143 15.2949 7.65598C15.4303 7.52054 15.614 7.44445 15.8056 7.44445H21.5834C21.7567 7.44445 21.9156 7.50512 22.0398 7.60767L22.1193 7.69867L22.1279 7.6929C22.2426 7.82409 22.3057 7.99244 22.3056 8.16667V12.5C22.3056 13.0746 22.0773 13.6257 21.671 14.0321C21.2647 14.4384 20.7136 14.6667 20.1389 14.6667H17.25C16.6754 14.6667 16.1243 14.4384 15.718 14.0321C15.3116 13.6257 15.0834 13.0746 15.0834 12.5V12.5Z" fill="white"/>
</svg>
